<svg width="24" height="24" viewBox="0 0 24 24" fill="none" xmlns="http://www.w3.org/2000/svg">
<path d="M11.9319 0C5.36937 0 0 5.36937 0 11.9319C0 18.4945 5.36937 23.8639 11.9319 23.8639C18.4945 23.8639 23.8639 18.4945 23.8639 11.9319C23.8639 5.36937 18.4945 0 11.9319 0ZM19.0165 19.0165C18.1216 19.9114 17.003 20.6572 15.8098 21.1792C15.5115 21.3283 15.2132 21.4029 14.9149 21.5521V19.7623C14.9149 18.7928 14.6166 18.1216 13.9454 17.6742C14.3183 17.5996 14.6912 17.5996 15.0641 17.525C15.4369 17.4504 15.7352 17.3759 16.1081 17.2267C16.481 17.0776 16.8539 16.9284 17.1522 16.7793C17.4504 16.6301 17.7487 16.3318 18.047 16.0335C18.3453 15.7352 18.5691 15.4369 18.7182 15.0641C18.8674 14.6912 19.0165 14.2437 19.1657 13.7217C19.2402 13.1997 19.3148 12.6031 19.3148 12.0065C19.3148 10.8133 18.9419 9.76927 18.1216 8.94895C18.4945 8.05405 18.4199 7.01001 17.9725 5.89139H17.6742C17.4505 5.89139 17.0776 5.96597 16.5556 6.11511C16.0335 6.33884 15.4369 6.63714 14.7658 7.08458C13.8709 6.86086 12.9014 6.71171 11.8574 6.71171C10.8879 6.71171 9.91842 6.86086 9.02352 7.08458C8.57608 6.78629 8.2032 6.56256 7.83033 6.41341C7.60661 6.11512 7.30831 6.04054 7.08458 5.96597C6.86086 5.89139 6.63714 5.81682 6.41341 5.81682C6.18969 5.81682 6.11512 5.81682 6.04054 5.81682C5.96597 5.81682 5.96597 5.81682 5.89139 5.81682C5.44394 6.93544 5.44394 7.9049 5.74224 8.87437C4.92192 9.69469 4.54905 10.7387 4.54905 11.9319C4.54905 12.5285 4.62362 13.1251 4.6982 13.6471C4.77277 14.1692 4.92192 14.6166 5.14565 14.9895C5.29479 15.3624 5.59309 15.6607 5.81682 15.959C6.11512 16.2573 6.41341 16.481 6.71171 16.7047C7.01001 16.8539 7.38288 17.0776 7.75576 17.1522C8.12863 17.3013 8.5015 17.3759 8.7998 17.4504C9.17267 17.525 9.54555 17.5996 9.91842 17.5996C9.24725 18.047 8.94895 18.7182 8.94895 19.6877V21.4775C8.57608 21.4029 8.27778 21.2538 7.9049 21.1046C6.71171 20.5826 5.66767 19.9114 4.6982 18.9419C3.8033 18.047 3.05756 16.9284 2.53554 15.7352C2.01351 14.4675 1.71522 13.1997 1.71522 11.8574C1.71522 10.515 2.01351 9.17267 2.53554 7.97948C3.05756 6.78629 3.72873 5.74224 4.6982 4.77277C5.59309 3.87788 6.71171 3.13213 7.9049 2.61011C9.17267 2.08809 10.4404 1.78979 11.7828 1.78979C13.1251 1.78979 14.4675 2.08809 15.6607 2.61011C16.8539 3.13213 17.8979 3.8033 18.8674 4.77277C19.7623 5.66767 20.508 6.78629 21.03 7.97948C21.5521 9.24725 21.8503 10.515 21.8503 11.8574C21.8503 13.1997 21.5521 14.542 21.03 15.7352C20.6572 17.003 19.9114 18.1216 19.0165 19.0165Z" fill="black"/>
</svg>
