<svg width="24" height="25" viewBox="0 0 24 25" fill="none" xmlns="http://www.w3.org/2000/svg">
<g clip-path="url(#clip0_287_109)">
<path d="M5.36937 3.12712C5.36937 4.54404 4.32533 5.66265 2.61011 5.66265C1.04404 5.66265 0 4.54404 0 3.12712C0 1.7102 1.04404 0.591583 2.68468 0.591583C4.3999 0.591583 5.36937 1.7102 5.36937 3.12712ZM0.149149 24.1571V7.75074H5.22022V24.1571H0.149149ZM8.27778 12.971C8.27778 10.9574 8.2032 9.24223 8.12863 7.75074H12.5285L12.7523 10.0626H12.8268C13.498 9.01851 15.1386 7.37787 17.8979 7.37787C21.2538 7.37787 23.7893 9.61511 23.7893 14.4625V24.1571H18.7182V15.059C18.7182 12.971 17.9725 11.4795 16.1081 11.4795C14.6912 11.4795 13.8709 12.4489 13.498 13.4184C13.4234 13.7167 13.4234 14.1642 13.4234 14.6862V24.1571H8.35235V12.971H8.27778Z" fill="black"/>
</g>
<defs>
<clipPath id="clip0_287_109">
<rect width="23.8639" height="23.8639" fill="white" transform="translate(0 0.591583)"/>
</clipPath>
</defs>
</svg>
