<svg width="24" height="24" viewBox="0 0 24 24" fill="none" xmlns="http://www.w3.org/2000/svg">
<path fill-rule="evenodd" clip-rule="evenodd" d="M11.9671 5.49851L12.004 5.53198L12.0383 5.5013C13.3231 4.37347 15.0451 3.83611 16.7708 4.06104L17.0174 4.09838C19.2354 4.48142 21.0525 6.07368 21.7235 8.22222C22.3945 10.3708 21.8065 12.7141 20.2007 14.2914L20.153 14.332L12.7037 21.7105C12.3439 22.0668 11.7812 22.0942 11.3902 21.7927L11.2963 21.7105L3.79198 14.278L3.62038 14.1036C2.14008 12.5333 1.61285 10.2806 2.25756 8.2071C2.92806 6.05069 4.75257 4.45339 6.9787 4.0739C8.79258 3.76468 10.6228 4.30667 11.9671 5.49851Z" fill="#171717"/>
</svg>
