<svg width="24" height="25" viewBox="0 0 24 25" fill="none" xmlns="http://www.w3.org/2000/svg">
<g clip-path="url(#clip0_287_108)">
<path fill-rule="evenodd" clip-rule="evenodd" d="M22.8198 6.09709C22.1486 4.9039 21.4775 4.68018 20.0606 4.6056C18.6436 4.53103 15.0641 4.45645 11.9319 4.45645C8.7998 4.45645 5.22022 4.53103 3.8033 4.6056C2.38639 4.68018 1.64064 4.9039 1.04404 6.09709C0.372873 7.21571 0 9.22922 0 12.8088C0 16.3138 0.372873 18.3273 1.04404 19.5205C1.71522 20.7137 2.38639 20.9374 3.8033 21.012C5.22022 21.0866 8.7998 21.1612 11.9319 21.1612C15.0641 21.1612 18.6436 21.0866 20.0606 21.012C21.4775 20.9374 22.2232 20.7137 22.8198 19.5205C23.491 18.3273 23.8639 16.3138 23.8639 12.8088C23.8639 9.22922 23.491 7.21571 22.8198 6.09709ZM9.54555 17.1341V8.4089L16.3318 12.8088L9.54555 17.1341Z" fill="black"/>
</g>
<defs>
<clipPath id="clip0_287_108">
<rect width="23.8639" height="23.8639" fill="white" transform="translate(0 0.727722)"/>
</clipPath>
</defs>
</svg>
