<?xml version="1.0" encoding="utf-8"?>
<!-- This file is generated by yarn build:icons -->
<svg xmlns="http://www.w3.org/2000/svg" xmlns:xlink="http://www.w3.org/1999/xlink" width="0" height="0">
<defs>
<symbol viewBox="0 0 24 24" id="arrow">
<path fill-rule="evenodd" clip-rule="evenodd" d="M21.8437 11.5518L16.185 5.89319L17.0782 5L23.815 11.7368C24.0617 11.9835 24.0617 12.3834 23.815 12.63L17.0782 19.3668L16.185 18.4737L21.8437 12.815H0V11.5518H21.8437Z"></path>
</symbol>
<symbol viewBox="0 0 24 25" id="facebook">
<g clip-path="url(#clip0_287_107)">
<path fill-rule="evenodd" clip-rule="evenodd" d="M8.72523 14.0636V24.7277H13.9455V14.1381H17.525L18.4199 9.73823H14.02C14.02 9.73823 14.02 7.65015 14.02 6.45695C13.9455 6.00951 14.1692 5.33834 14.9149 5.33834C16.0335 5.33834 17.4505 5.33834 17.4505 5.33834V0.863861C17.4505 0.863861 15.2132 0.863861 12.7523 0.863861C11.1116 0.863861 8.72523 2.87737 8.72523 4.96546C8.72523 7.12813 8.72523 9.51451 8.72523 9.51451H5.96597V13.989L8.72523 14.0636Z"></path>
</g>
<defs>
<clipPath id="clip0_287_107">
<rect width="23.8639" height="23.8639" fill="white" transform="translate(0 0.863861)"></rect>
</clipPath>
</defs>
</symbol>
<symbol viewBox="0 0 24 24" id="github">
<path d="M11.9319 0C5.36937 0 0 5.36937 0 11.9319C0 18.4945 5.36937 23.8639 11.9319 23.8639C18.4945 23.8639 23.8639 18.4945 23.8639 11.9319C23.8639 5.36937 18.4945 0 11.9319 0ZM19.0165 19.0165C18.1216 19.9114 17.003 20.6572 15.8098 21.1792C15.5115 21.3283 15.2132 21.4029 14.9149 21.5521V19.7623C14.9149 18.7928 14.6166 18.1216 13.9454 17.6742C14.3183 17.5996 14.6912 17.5996 15.0641 17.525C15.4369 17.4504 15.7352 17.3759 16.1081 17.2267C16.481 17.0776 16.8539 16.9284 17.1522 16.7793C17.4504 16.6301 17.7487 16.3318 18.047 16.0335C18.3453 15.7352 18.5691 15.4369 18.7182 15.0641C18.8674 14.6912 19.0165 14.2437 19.1657 13.7217C19.2402 13.1997 19.3148 12.6031 19.3148 12.0065C19.3148 10.8133 18.9419 9.76927 18.1216 8.94895C18.4945 8.05405 18.4199 7.01001 17.9725 5.89139H17.6742C17.4505 5.89139 17.0776 5.96597 16.5556 6.11511C16.0335 6.33884 15.4369 6.63714 14.7658 7.08458C13.8709 6.86086 12.9014 6.71171 11.8574 6.71171C10.8879 6.71171 9.91842 6.86086 9.02352 7.08458C8.57608 6.78629 8.2032 6.56256 7.83033 6.41341C7.60661 6.11512 7.30831 6.04054 7.08458 5.96597C6.86086 5.89139 6.63714 5.81682 6.41341 5.81682C6.18969 5.81682 6.11512 5.81682 6.04054 5.81682C5.96597 5.81682 5.96597 5.81682 5.89139 5.81682C5.44394 6.93544 5.44394 7.9049 5.74224 8.87437C4.92192 9.69469 4.54905 10.7387 4.54905 11.9319C4.54905 12.5285 4.62362 13.1251 4.6982 13.6471C4.77277 14.1692 4.92192 14.6166 5.14565 14.9895C5.29479 15.3624 5.59309 15.6607 5.81682 15.959C6.11512 16.2573 6.41341 16.481 6.71171 16.7047C7.01001 16.8539 7.38288 17.0776 7.75576 17.1522C8.12863 17.3013 8.5015 17.3759 8.7998 17.4504C9.17267 17.525 9.54555 17.5996 9.91842 17.5996C9.24725 18.047 8.94895 18.7182 8.94895 19.6877V21.4775C8.57608 21.4029 8.27778 21.2538 7.9049 21.1046C6.71171 20.5826 5.66767 19.9114 4.6982 18.9419C3.8033 18.047 3.05756 16.9284 2.53554 15.7352C2.01351 14.4675 1.71522 13.1997 1.71522 11.8574C1.71522 10.515 2.01351 9.17267 2.53554 7.97948C3.05756 6.78629 3.72873 5.74224 4.6982 4.77277C5.59309 3.87788 6.71171 3.13213 7.9049 2.61011C9.17267 2.08809 10.4404 1.78979 11.7828 1.78979C13.1251 1.78979 14.4675 2.08809 15.6607 2.61011C16.8539 3.13213 17.8979 3.8033 18.8674 4.77277C19.7623 5.66767 20.508 6.78629 21.03 7.97948C21.5521 9.24725 21.8503 10.515 21.8503 11.8574C21.8503 13.1997 21.5521 14.542 21.03 15.7352C20.6572 17.003 19.9114 18.1216 19.0165 19.0165Z"></path>
</symbol>
<symbol viewBox="0 0 24 24" id="heart--empty">
<path fill-rule="evenodd" clip-rule="evenodd" d="M11.9671 5.49851L12.004 5.53198L12.0383 5.5013C13.3231 4.37347 15.0451 3.83611 16.7708 4.06104L17.0174 4.09838C19.2354 4.48142 21.0525 6.07368 21.7235 8.22222C22.3945 10.3708 21.8065 12.7141 20.2007 14.2914L20.153 14.332L12.7037 21.7105C12.3439 22.0668 11.7812 22.0942 11.3902 21.7927L11.2963 21.7105L3.79198 14.278L3.62038 14.1036C2.14008 12.5333 1.61285 10.2806 2.25756 8.2071C2.92806 6.05069 4.75257 4.45339 6.9787 4.0739C8.79258 3.76468 10.6228 4.30667 11.9671 5.49851ZM5.20367 12.8615L12 19.592L18.7963 12.8615L18.835 12.826L18.9547 12.7031C19.9069 11.6571 20.2394 10.1792 19.8144 8.81843C19.3671 7.38607 18.1557 6.32457 16.677 6.06921C15.1983 5.81384 13.7011 6.40758 12.7992 7.60695C12.3978 8.14084 11.5958 8.13861 11.1974 7.6025C10.2993 6.39419 8.79888 5.79246 7.31479 6.04546C5.83071 6.29845 4.61437 7.36332 4.16737 8.80092C3.74272 10.1666 4.08073 11.649 5.04067 12.694L5.20367 12.8615Z"></path>
</symbol>
<symbol viewBox="0 0 24 24" id="heart--filled">
<path fill-rule="evenodd" clip-rule="evenodd" d="M11.9671 5.49851L12.004 5.53198L12.0383 5.5013C13.3231 4.37347 15.0451 3.83611 16.7708 4.06104L17.0174 4.09838C19.2354 4.48142 21.0525 6.07368 21.7235 8.22222C22.3945 10.3708 21.8065 12.7141 20.2007 14.2914L20.153 14.332L12.7037 21.7105C12.3439 22.0668 11.7812 22.0942 11.3902 21.7927L11.2963 21.7105L3.79198 14.278L3.62038 14.1036C2.14008 12.5333 1.61285 10.2806 2.25756 8.2071C2.92806 6.05069 4.75257 4.45339 6.9787 4.0739C8.79258 3.76468 10.6228 4.30667 11.9671 5.49851Z"></path>
</symbol>
<symbol viewBox="0 0 24 24" id="hide">
<path fill-rule="evenodd" clip-rule="evenodd" d="M2.29289 2.29289C2.65338 1.93241 3.22061 1.90468 3.6129 2.2097L3.70711 2.29289L17.9832 16.569C18.0385 16.6134 18.0897 16.6643 18.1356 16.7214L21.7071 20.2929C22.0976 20.6834 22.0976 21.3166 21.7071 21.7071C21.3466 22.0676 20.7794 22.0953 20.3871 21.7903L20.2929 21.7071L17.206 18.6203C15.6021 19.5382 13.8623 20 12 20C7.6044 20 3.96348 17.4514 1.13177 12.4962C0.956057 12.1887 0.956079 11.8112 1.13182 11.5037C2.32272 9.42032 3.65271 7.76402 5.12709 6.5413L2.29289 3.70711C1.90237 3.31658 1.90237 2.68342 2.29289 2.29289ZM6.54861 7.96282C5.40937 8.87487 4.34586 10.11 3.3617 11.6732L3.161 12L3.27859 12.1941C5.63002 15.9935 8.42551 17.8901 11.709 17.9954L12 18C13.326 18 14.5644 17.7155 15.7281 17.1423L13.2947 14.7089C12.1786 15.2434 10.8005 15.0479 9.8761 14.1229C8.95222 13.1984 8.75747 11.8212 9.29159 10.7058L6.54861 7.96282ZM11.2385 12.6527L11.3478 12.762C11.3283 12.7453 11.3093 12.7277 11.2908 12.7092C11.2725 12.6909 11.2551 12.672 11.2385 12.6527ZM11.9996 3.99994C16.3951 3.99994 20.0361 6.54859 22.8678 11.5038C23.0435 11.8113 23.0435 12.1888 22.8677 12.4963C22.0529 13.9217 21.1749 15.1455 20.2309 16.1668C19.8561 16.5723 19.2234 16.5972 18.8178 16.2224C18.4122 15.8475 18.3873 15.2148 18.7622 14.8092C19.4125 14.1056 20.0351 13.283 20.6292 12.3407L20.8386 12L20.721 11.8059C18.3695 8.00649 15.5739 6.10986 12.2873 6.00458L11.9961 5.99993C11.1984 5.99716 10.4044 6.10708 9.6376 6.32643C9.10661 6.47833 8.55302 6.17102 8.40113 5.64003C8.24923 5.10905 8.55654 4.55546 9.08753 4.40357C10.0355 4.1324 11.017 3.99652 11.9996 3.99994Z"></path>
</symbol>
<symbol viewBox="0 0 24 25" id="linkedin">
<g clip-path="url(#clip0_287_109)">
<path d="M5.36937 3.12712C5.36937 4.54404 4.32533 5.66265 2.61011 5.66265C1.04404 5.66265 0 4.54404 0 3.12712C0 1.7102 1.04404 0.591583 2.68468 0.591583C4.3999 0.591583 5.36937 1.7102 5.36937 3.12712ZM0.149149 24.1571V7.75074H5.22022V24.1571H0.149149ZM8.27778 12.971C8.27778 10.9574 8.2032 9.24223 8.12863 7.75074H12.5285L12.7523 10.0626H12.8268C13.498 9.01851 15.1386 7.37787 17.8979 7.37787C21.2538 7.37787 23.7893 9.61511 23.7893 14.4625V24.1571H18.7182V15.059C18.7182 12.971 17.9725 11.4795 16.1081 11.4795C14.6912 11.4795 13.8709 12.4489 13.498 13.4184C13.4234 13.7167 13.4234 14.1642 13.4234 14.6862V24.1571H8.35235V12.971H8.27778Z"></path>
</g>
<defs>
<clipPath id="clip0_287_109">
<rect width="23.8639" height="23.8639" fill="white" transform="translate(0 0.591583)"></rect>
</clipPath>
</defs>
</symbol>
<symbol viewBox="0 0 24 24" id="up">
<path d="M12.0589 4L0 16.0589H24.1177L12.0589 4Z"></path>
</symbol>
<symbol viewBox="0 0 24 25" id="youtube">
<g clip-path="url(#clip0_287_108)">
<path fill-rule="evenodd" clip-rule="evenodd" d="M22.8198 6.09709C22.1486 4.9039 21.4775 4.68018 20.0606 4.6056C18.6436 4.53103 15.0641 4.45645 11.9319 4.45645C8.7998 4.45645 5.22022 4.53103 3.8033 4.6056C2.38639 4.68018 1.64064 4.9039 1.04404 6.09709C0.372873 7.21571 0 9.22922 0 12.8088C0 16.3138 0.372873 18.3273 1.04404 19.5205C1.71522 20.7137 2.38639 20.9374 3.8033 21.012C5.22022 21.0866 8.7998 21.1612 11.9319 21.1612C15.0641 21.1612 18.6436 21.0866 20.0606 21.012C21.4775 20.9374 22.2232 20.7137 22.8198 19.5205C23.491 18.3273 23.8639 16.3138 23.8639 12.8088C23.8639 9.22922 23.491 7.21571 22.8198 6.09709ZM9.54555 17.1341V8.4089L16.3318 12.8088L9.54555 17.1341Z"></path>
</g>
<defs>
<clipPath id="clip0_287_108">
<rect width="23.8639" height="23.8639" fill="white" transform="translate(0 0.727722)"></rect>
</clipPath>
</defs>
</symbol>
</defs>
</svg>
