<svg width="476" height="21" viewBox="0 0 476 21" fill="none" xmlns="http://www.w3.org/2000/svg">
<rect width="475.711" height="20.5469" fill="#25292F"/>
<path d="M455.781 4.16406H462.219C463.156 4.16406 463.969 4.26562 464.656 4.46875C465.344 4.67188 465.914 4.96615 466.367 5.35156C466.82 5.73177 467.156 6.19792 467.375 6.75C467.599 7.30208 467.711 7.92448 467.711 8.61719C467.711 9.26823 467.602 9.86979 467.383 10.4219C467.164 10.974 466.828 11.4531 466.375 11.8594C465.927 12.2604 465.359 12.5755 464.672 12.8047C463.984 13.0286 463.172 13.1406 462.234 13.1406L458.258 13.1328V16.375H455.781V4.16406ZM462.281 10.9922C462.75 10.9922 463.159 10.9375 463.508 10.8281C463.862 10.7135 464.156 10.5547 464.391 10.3516C464.63 10.1432 464.807 9.89323 464.922 9.60156C465.042 9.30469 465.102 8.97656 465.102 8.61719C465.102 7.89323 464.865 7.33073 464.391 6.92969C463.922 6.52344 463.219 6.32031 462.281 6.32031H458.258V10.9922H462.281Z" fill="#FAFD5D"/>
<path d="M439.062 10.2344C439.062 9.3125 439.232 8.46875 439.57 7.70312C439.909 6.9375 440.383 6.28125 440.992 5.73438C441.607 5.18229 442.341 4.75521 443.195 4.45312C444.055 4.15104 445.005 4 446.047 4C447.083 4 448.031 4.15104 448.891 4.45312C449.75 4.75521 450.484 5.18229 451.094 5.73438C451.708 6.28125 452.185 6.9375 452.523 7.70312C452.862 8.46875 453.031 9.3125 453.031 10.2344C453.031 11.1615 452.862 12.013 452.523 12.7891C452.185 13.5599 451.708 14.224 451.094 14.7812C450.484 15.3385 449.75 15.7734 448.891 16.0859C448.031 16.3932 447.083 16.5469 446.047 16.5469C445.005 16.5469 444.055 16.3932 443.195 16.0859C442.341 15.7734 441.607 15.3385 440.992 14.7812C440.383 14.224 439.909 13.5599 439.57 12.7891C439.232 12.013 439.062 11.1615 439.062 10.2344ZM441.539 10.2344C441.539 10.8646 441.651 11.4323 441.875 11.9375C442.104 12.4427 442.419 12.875 442.82 13.2344C443.227 13.5885 443.703 13.862 444.25 14.0547C444.802 14.2474 445.401 14.3438 446.047 14.3438C446.693 14.3438 447.289 14.2474 447.836 14.0547C448.388 13.862 448.865 13.5885 449.266 13.2344C449.667 12.875 449.982 12.4427 450.211 11.9375C450.44 11.4323 450.555 10.8646 450.555 10.2344C450.555 9.60417 450.44 9.03906 450.211 8.53906C449.982 8.03906 449.667 7.61719 449.266 7.27344C448.865 6.92448 448.388 6.65885 447.836 6.47656C447.289 6.29427 446.693 6.20312 446.047 6.20312C445.401 6.20312 444.802 6.29427 444.25 6.47656C443.703 6.65885 443.227 6.92448 442.82 7.27344C442.419 7.61719 442.104 8.03906 441.875 8.53906C441.651 9.03906 441.539 9.60417 441.539 10.2344Z" fill="#FAFD5D"/>
<path d="M430.148 6.33594H425.641V4.16406H437.133V6.33594H432.625V16.375H430.148V6.33594Z" fill="#FAFD5D"/>
<path d="M407.844 4.16406H418.242V6.33594H410.32V8.77344H417.336V10.8125H410.32V14.2109H418.406V16.375H407.844V4.16406Z" fill="#FAFD5D"/>
<path d="M391.82 4.16406H394.297V7.35156H401.891V4.16406H404.375V16.375H401.891V9.46875H394.297V16.375H391.82V4.16406Z" fill="#FAFD5D"/>
<path d="M382.195 6.33594H377.688V4.16406H389.18V6.33594H384.672V16.375H382.195V6.33594Z" fill="#FAFD5D"/>
<path d="M356.484 10.2344C356.484 9.3125 356.654 8.46875 356.992 7.70312C357.331 6.9375 357.805 6.28125 358.414 5.73438C359.029 5.18229 359.763 4.75521 360.617 4.45312C361.477 4.15104 362.427 4 363.469 4C364.505 4 365.453 4.15104 366.312 4.45312C367.172 4.75521 367.906 5.18229 368.516 5.73438C369.13 6.28125 369.607 6.9375 369.945 7.70312C370.284 8.46875 370.453 9.3125 370.453 10.2344C370.453 11.1615 370.284 12.013 369.945 12.7891C369.607 13.5599 369.13 14.224 368.516 14.7812C367.906 15.3385 367.172 15.7734 366.312 16.0859C365.453 16.3932 364.505 16.5469 363.469 16.5469C362.427 16.5469 361.477 16.3932 360.617 16.0859C359.763 15.7734 359.029 15.3385 358.414 14.7812C357.805 14.224 357.331 13.5599 356.992 12.7891C356.654 12.013 356.484 11.1615 356.484 10.2344ZM358.961 10.2344C358.961 10.8646 359.073 11.4323 359.297 11.9375C359.526 12.4427 359.841 12.875 360.242 13.2344C360.648 13.5885 361.125 13.862 361.672 14.0547C362.224 14.2474 362.823 14.3438 363.469 14.3438C364.115 14.3438 364.711 14.2474 365.258 14.0547C365.81 13.862 366.286 13.5885 366.688 13.2344C367.089 12.875 367.404 12.4427 367.633 11.9375C367.862 11.4323 367.977 10.8646 367.977 10.2344C367.977 9.60417 367.862 9.03906 367.633 8.53906C367.404 8.03906 367.089 7.61719 366.688 7.27344C366.286 6.92448 365.81 6.65885 365.258 6.47656C364.711 6.29427 364.115 6.20312 363.469 6.20312C362.823 6.20312 362.224 6.29427 361.672 6.47656C361.125 6.65885 360.648 6.92448 360.242 7.27344C359.841 7.61719 359.526 8.03906 359.297 8.53906C359.073 9.03906 358.961 9.60417 358.961 10.2344Z" fill="#FAFD5D"/>
<path d="M347.57 6.33594H343.062V4.16406H354.555V6.33594H350.047V16.375H347.57V6.33594Z" fill="#FAFD5D"/>
<path d="M323.148 12.7422C323.591 12.9922 324.039 13.2188 324.492 13.4219C324.951 13.6198 325.424 13.7891 325.914 13.9297C326.404 14.0651 326.917 14.1693 327.453 14.2422C327.995 14.3151 328.57 14.3516 329.18 14.3516C329.914 14.3516 330.539 14.3047 331.055 14.2109C331.57 14.112 331.99 13.9792 332.312 13.8125C332.641 13.6406 332.878 13.4375 333.023 13.2031C333.174 12.9688 333.25 12.7135 333.25 12.4375C333.25 11.9948 333.065 11.6458 332.695 11.3906C332.326 11.1302 331.755 11 330.984 11C330.646 11 330.289 11.0234 329.914 11.0703C329.539 11.112 329.159 11.1589 328.773 11.2109C328.393 11.263 328.016 11.3125 327.641 11.3594C327.271 11.401 326.922 11.4219 326.594 11.4219C326.047 11.4219 325.521 11.3516 325.016 11.2109C324.516 11.0703 324.07 10.8594 323.68 10.5781C323.294 10.2969 322.987 9.94531 322.758 9.52344C322.529 9.10156 322.414 8.60938 322.414 8.04688C322.414 7.71354 322.458 7.38281 322.547 7.05469C322.641 6.72656 322.786 6.41406 322.984 6.11719C323.188 5.8151 323.448 5.53646 323.766 5.28125C324.083 5.02083 324.466 4.79688 324.914 4.60938C325.367 4.42188 325.888 4.27604 326.477 4.17188C327.07 4.0625 327.745 4.00781 328.5 4.00781C329.047 4.00781 329.596 4.03906 330.148 4.10156C330.701 4.15885 331.237 4.24219 331.758 4.35156C332.284 4.46094 332.789 4.59375 333.273 4.75C333.758 4.90104 334.208 5.07031 334.625 5.25781L333.539 7.25781C333.195 7.10677 332.826 6.96875 332.43 6.84375C332.034 6.71354 331.62 6.60156 331.188 6.50781C330.755 6.41406 330.307 6.34115 329.844 6.28906C329.385 6.23177 328.917 6.20312 328.438 6.20312C327.755 6.20312 327.193 6.2526 326.75 6.35156C326.312 6.45052 325.964 6.57812 325.703 6.73438C325.443 6.88542 325.26 7.05729 325.156 7.25C325.057 7.4375 325.008 7.625 325.008 7.8125C325.008 8.17708 325.172 8.47656 325.5 8.71094C325.828 8.9401 326.328 9.05469 327 9.05469C327.271 9.05469 327.581 9.03646 327.93 9C328.284 8.95833 328.654 8.91406 329.039 8.86719C329.43 8.82031 329.826 8.77865 330.227 8.74219C330.633 8.70052 331.026 8.67969 331.406 8.67969C332.125 8.67969 332.76 8.76042 333.312 8.92188C333.87 9.08333 334.336 9.3151 334.711 9.61719C335.086 9.91406 335.37 10.276 335.562 10.7031C335.755 11.125 335.852 11.599 335.852 12.125C335.852 12.8281 335.688 13.4557 335.359 14.0078C335.036 14.5547 334.573 15.0182 333.969 15.3984C333.37 15.7734 332.646 16.0599 331.797 16.2578C330.948 16.4505 330.003 16.5469 328.961 16.5469C328.273 16.5469 327.602 16.5026 326.945 16.4141C326.289 16.3307 325.659 16.2109 325.055 16.0547C324.456 15.8932 323.883 15.7031 323.336 15.4844C322.794 15.2604 322.292 15.0156 321.828 14.75L323.148 12.7422Z" fill="#FAFD5D"/>
<path d="M309.266 4.16406H319.664V6.33594H311.742V8.77344H318.758V10.8125H311.742V14.2109H319.828V16.375H309.266V4.16406Z" fill="#FAFD5D"/>
<path d="M293.836 12.7422C294.279 12.9922 294.727 13.2188 295.18 13.4219C295.638 13.6198 296.112 13.7891 296.602 13.9297C297.091 14.0651 297.604 14.1693 298.141 14.2422C298.682 14.3151 299.258 14.3516 299.867 14.3516C300.602 14.3516 301.227 14.3047 301.742 14.2109C302.258 14.112 302.677 13.9792 303 13.8125C303.328 13.6406 303.565 13.4375 303.711 13.2031C303.862 12.9688 303.938 12.7135 303.938 12.4375C303.938 11.9948 303.753 11.6458 303.383 11.3906C303.013 11.1302 302.443 11 301.672 11C301.333 11 300.977 11.0234 300.602 11.0703C300.227 11.112 299.846 11.1589 299.461 11.2109C299.081 11.263 298.703 11.3125 298.328 11.3594C297.958 11.401 297.609 11.4219 297.281 11.4219C296.734 11.4219 296.208 11.3516 295.703 11.2109C295.203 11.0703 294.758 10.8594 294.367 10.5781C293.982 10.2969 293.674 9.94531 293.445 9.52344C293.216 9.10156 293.102 8.60938 293.102 8.04688C293.102 7.71354 293.146 7.38281 293.234 7.05469C293.328 6.72656 293.474 6.41406 293.672 6.11719C293.875 5.8151 294.135 5.53646 294.453 5.28125C294.771 5.02083 295.154 4.79688 295.602 4.60938C296.055 4.42188 296.576 4.27604 297.164 4.17188C297.758 4.0625 298.432 4.00781 299.188 4.00781C299.734 4.00781 300.284 4.03906 300.836 4.10156C301.388 4.15885 301.924 4.24219 302.445 4.35156C302.971 4.46094 303.477 4.59375 303.961 4.75C304.445 4.90104 304.896 5.07031 305.312 5.25781L304.227 7.25781C303.883 7.10677 303.513 6.96875 303.117 6.84375C302.721 6.71354 302.307 6.60156 301.875 6.50781C301.443 6.41406 300.995 6.34115 300.531 6.28906C300.073 6.23177 299.604 6.20312 299.125 6.20312C298.443 6.20312 297.88 6.2526 297.438 6.35156C297 6.45052 296.651 6.57812 296.391 6.73438C296.13 6.88542 295.948 7.05729 295.844 7.25C295.745 7.4375 295.695 7.625 295.695 7.8125C295.695 8.17708 295.859 8.47656 296.188 8.71094C296.516 8.9401 297.016 9.05469 297.688 9.05469C297.958 9.05469 298.268 9.03646 298.617 9C298.971 8.95833 299.341 8.91406 299.727 8.86719C300.117 8.82031 300.513 8.77865 300.914 8.74219C301.32 8.70052 301.714 8.67969 302.094 8.67969C302.812 8.67969 303.448 8.76042 304 8.92188C304.557 9.08333 305.023 9.3151 305.398 9.61719C305.773 9.91406 306.057 10.276 306.25 10.7031C306.443 11.125 306.539 11.599 306.539 12.125C306.539 12.8281 306.375 13.4557 306.047 14.0078C305.724 14.5547 305.26 15.0182 304.656 15.3984C304.057 15.7734 303.333 16.0599 302.484 16.2578C301.635 16.4505 300.69 16.5469 299.648 16.5469C298.961 16.5469 298.289 16.5026 297.633 16.4141C296.977 16.3307 296.346 16.2109 295.742 16.0547C295.143 15.8932 294.57 15.7031 294.023 15.4844C293.482 15.2604 292.979 15.0156 292.516 14.75L293.836 12.7422Z" fill="#FAFD5D"/>
<path d="M287.609 4.16406H290.102V16.375H287.609V4.16406Z" fill="#FAFD5D"/>
<path d="M273.281 4.16406H279.492C280.43 4.16406 281.242 4.26302 281.93 4.46094C282.617 4.65365 283.188 4.9349 283.641 5.30469C284.094 5.67448 284.43 6.125 284.648 6.65625C284.872 7.1875 284.984 7.78906 284.984 8.46094C284.984 8.91406 284.93 9.34635 284.82 9.75781C284.711 10.1641 284.542 10.5391 284.312 10.8828C284.089 11.2266 283.805 11.5339 283.461 11.8047C283.117 12.0703 282.714 12.2917 282.25 12.4688L284.906 16.375H281.875L279.578 12.9062H279.508L275.758 12.8984V16.375H273.281V4.16406ZM279.555 10.7578C280.023 10.7578 280.432 10.7031 280.781 10.5938C281.135 10.4844 281.43 10.3307 281.664 10.1328C281.904 9.9349 282.081 9.69531 282.195 9.41406C282.315 9.1276 282.375 8.8099 282.375 8.46094C282.375 7.77865 282.141 7.2526 281.672 6.88281C281.203 6.50781 280.497 6.32031 279.555 6.32031H275.758V10.7578H279.555Z" fill="#FAFD5D"/>
<path d="M252.539 12.7422C252.982 12.9922 253.43 13.2188 253.883 13.4219C254.341 13.6198 254.815 13.7891 255.305 13.9297C255.794 14.0651 256.307 14.1693 256.844 14.2422C257.385 14.3151 257.961 14.3516 258.57 14.3516C259.305 14.3516 259.93 14.3047 260.445 14.2109C260.961 14.112 261.38 13.9792 261.703 13.8125C262.031 13.6406 262.268 13.4375 262.414 13.2031C262.565 12.9688 262.641 12.7135 262.641 12.4375C262.641 11.9948 262.456 11.6458 262.086 11.3906C261.716 11.1302 261.146 11 260.375 11C260.036 11 259.68 11.0234 259.305 11.0703C258.93 11.112 258.549 11.1589 258.164 11.2109C257.784 11.263 257.406 11.3125 257.031 11.3594C256.661 11.401 256.312 11.4219 255.984 11.4219C255.438 11.4219 254.911 11.3516 254.406 11.2109C253.906 11.0703 253.461 10.8594 253.07 10.5781C252.685 10.2969 252.378 9.94531 252.148 9.52344C251.919 9.10156 251.805 8.60938 251.805 8.04688C251.805 7.71354 251.849 7.38281 251.938 7.05469C252.031 6.72656 252.177 6.41406 252.375 6.11719C252.578 5.8151 252.839 5.53646 253.156 5.28125C253.474 5.02083 253.857 4.79688 254.305 4.60938C254.758 4.42188 255.279 4.27604 255.867 4.17188C256.461 4.0625 257.135 4.00781 257.891 4.00781C258.438 4.00781 258.987 4.03906 259.539 4.10156C260.091 4.15885 260.628 4.24219 261.148 4.35156C261.674 4.46094 262.18 4.59375 262.664 4.75C263.148 4.90104 263.599 5.07031 264.016 5.25781L262.93 7.25781C262.586 7.10677 262.216 6.96875 261.82 6.84375C261.424 6.71354 261.01 6.60156 260.578 6.50781C260.146 6.41406 259.698 6.34115 259.234 6.28906C258.776 6.23177 258.307 6.20312 257.828 6.20312C257.146 6.20312 256.583 6.2526 256.141 6.35156C255.703 6.45052 255.354 6.57812 255.094 6.73438C254.833 6.88542 254.651 7.05729 254.547 7.25C254.448 7.4375 254.398 7.625 254.398 7.8125C254.398 8.17708 254.562 8.47656 254.891 8.71094C255.219 8.9401 255.719 9.05469 256.391 9.05469C256.661 9.05469 256.971 9.03646 257.32 9C257.674 8.95833 258.044 8.91406 258.43 8.86719C258.82 8.82031 259.216 8.77865 259.617 8.74219C260.023 8.70052 260.417 8.67969 260.797 8.67969C261.516 8.67969 262.151 8.76042 262.703 8.92188C263.26 9.08333 263.727 9.3151 264.102 9.61719C264.477 9.91406 264.76 10.276 264.953 10.7031C265.146 11.125 265.242 11.599 265.242 12.125C265.242 12.8281 265.078 13.4557 264.75 14.0078C264.427 14.5547 263.964 15.0182 263.359 15.3984C262.76 15.7734 262.036 16.0599 261.188 16.2578C260.339 16.4505 259.393 16.5469 258.352 16.5469C257.664 16.5469 256.992 16.5026 256.336 16.4141C255.68 16.3307 255.049 16.2109 254.445 16.0547C253.846 15.8932 253.273 15.7031 252.727 15.4844C252.185 15.2604 251.682 15.0156 251.219 14.75L252.539 12.7422Z" fill="#FAFD5D"/>
<path d="M230.438 4.16406H233.141L236.453 12.0469L237.219 13.9531L237.82 12.0469L239.039 9.17188L236.844 4.16406H239.391L240.289 6.54688L241.125 4.16406H243.672L241.477 9.17188L242.719 12.1094L243.469 13.9531L244.047 12.0781L247.375 4.16406H250.078L244.688 16.375H242.234L241.148 13.9531L240.266 11.6016L239.383 13.9531L238.281 16.375H235.828L230.438 4.16406Z" fill="#FAFD5D"/>
<path d="M218.703 4.16406H229.102V6.33594H221.18V8.77344H228.195V10.8125H221.18V14.2109H229.266V16.375H218.703V4.16406Z" fill="#FAFD5D"/>
<path d="M202.688 4.16406H205.164L212.773 8.14844V4.16406H215.25V16.375H212.773V10.7734L205.164 6.8125V16.375H202.688V4.16406Z" fill="#FAFD5D"/>
<path d="M187.758 6.33594H183.25V4.16406H194.742V6.33594H190.234V16.375H187.758V6.33594Z" fill="#FAFD5D"/>
<path d="M168.648 12.7422C169.091 12.9922 169.539 13.2188 169.992 13.4219C170.451 13.6198 170.924 13.7891 171.414 13.9297C171.904 14.0651 172.417 14.1693 172.953 14.2422C173.495 14.3151 174.07 14.3516 174.68 14.3516C175.414 14.3516 176.039 14.3047 176.555 14.2109C177.07 14.112 177.49 13.9792 177.812 13.8125C178.141 13.6406 178.378 13.4375 178.523 13.2031C178.674 12.9688 178.75 12.7135 178.75 12.4375C178.75 11.9948 178.565 11.6458 178.195 11.3906C177.826 11.1302 177.255 11 176.484 11C176.146 11 175.789 11.0234 175.414 11.0703C175.039 11.112 174.659 11.1589 174.273 11.2109C173.893 11.263 173.516 11.3125 173.141 11.3594C172.771 11.401 172.422 11.4219 172.094 11.4219C171.547 11.4219 171.021 11.3516 170.516 11.2109C170.016 11.0703 169.57 10.8594 169.18 10.5781C168.794 10.2969 168.487 9.94531 168.258 9.52344C168.029 9.10156 167.914 8.60938 167.914 8.04688C167.914 7.71354 167.958 7.38281 168.047 7.05469C168.141 6.72656 168.286 6.41406 168.484 6.11719C168.688 5.8151 168.948 5.53646 169.266 5.28125C169.583 5.02083 169.966 4.79688 170.414 4.60938C170.867 4.42188 171.388 4.27604 171.977 4.17188C172.57 4.0625 173.245 4.00781 174 4.00781C174.547 4.00781 175.096 4.03906 175.648 4.10156C176.201 4.15885 176.737 4.24219 177.258 4.35156C177.784 4.46094 178.289 4.59375 178.773 4.75C179.258 4.90104 179.708 5.07031 180.125 5.25781L179.039 7.25781C178.695 7.10677 178.326 6.96875 177.93 6.84375C177.534 6.71354 177.12 6.60156 176.688 6.50781C176.255 6.41406 175.807 6.34115 175.344 6.28906C174.885 6.23177 174.417 6.20312 173.938 6.20312C173.255 6.20312 172.693 6.2526 172.25 6.35156C171.812 6.45052 171.464 6.57812 171.203 6.73438C170.943 6.88542 170.76 7.05729 170.656 7.25C170.557 7.4375 170.508 7.625 170.508 7.8125C170.508 8.17708 170.672 8.47656 171 8.71094C171.328 8.9401 171.828 9.05469 172.5 9.05469C172.771 9.05469 173.081 9.03646 173.43 9C173.784 8.95833 174.154 8.91406 174.539 8.86719C174.93 8.82031 175.326 8.77865 175.727 8.74219C176.133 8.70052 176.526 8.67969 176.906 8.67969C177.625 8.67969 178.26 8.76042 178.812 8.92188C179.37 9.08333 179.836 9.3151 180.211 9.61719C180.586 9.91406 180.87 10.276 181.062 10.7031C181.255 11.125 181.352 11.599 181.352 12.125C181.352 12.8281 181.188 13.4557 180.859 14.0078C180.536 14.5547 180.073 15.0182 179.469 15.3984C178.87 15.7734 178.146 16.0599 177.297 16.2578C176.448 16.4505 175.503 16.5469 174.461 16.5469C173.773 16.5469 173.102 16.5026 172.445 16.4141C171.789 16.3307 171.159 16.2109 170.555 16.0547C169.956 15.8932 169.383 15.7031 168.836 15.4844C168.294 15.2604 167.792 15.0156 167.328 14.75L168.648 12.7422Z" fill="#FAFD5D"/>
<path d="M154.766 4.16406H165.164V6.33594H157.242V8.77344H164.258V10.8125H157.242V14.2109H165.328V16.375H154.766V4.16406Z" fill="#FAFD5D"/>
<path d="M140.078 4.16406H146.602C147.398 4.16406 148.091 4.25 148.68 4.42188C149.273 4.58854 149.766 4.82031 150.156 5.11719C150.547 5.41406 150.836 5.76823 151.023 6.17969C151.216 6.58594 151.312 7.02604 151.312 7.5C151.312 8.27604 151.068 8.95573 150.578 9.53906C151.141 9.8724 151.56 10.3047 151.836 10.8359C152.112 11.3672 152.25 11.9714 152.25 12.6484C152.25 13.2161 152.154 13.7292 151.961 14.1875C151.773 14.6458 151.484 15.0391 151.094 15.3672C150.708 15.6901 150.219 15.9401 149.625 16.1172C149.036 16.2891 148.341 16.375 147.539 16.375H140.078V4.16406ZM147.555 8.85156C147.768 8.85156 147.977 8.85938 148.18 8.875C148.529 8.54167 148.703 8.16146 148.703 7.73438C148.703 7.29167 148.529 6.95052 148.18 6.71094C147.836 6.46615 147.331 6.34375 146.664 6.34375H142.555V8.85156H147.555ZM147.602 14.2188C148.268 14.2188 148.773 14.0755 149.117 13.7891C149.466 13.5026 149.641 13.099 149.641 12.5781C149.641 12.0573 149.466 11.651 149.117 11.3594C148.773 11.0677 148.268 10.9219 147.602 10.9219H142.555V14.2188H147.602Z" fill="#FAFD5D"/>
<path d="M121.453 4.16406H131.852V6.33594H123.93V8.77344H130.945V10.8125H123.93V14.2109H132.016V16.375H121.453V4.16406Z" fill="#FAFD5D"/>
<path d="M105.43 4.16406H107.906V7.35156H115.5V4.16406H117.984V16.375H115.5V9.46875H107.906V16.375H105.43V4.16406Z" fill="#FAFD5D"/>
<path d="M95.8047 6.33594H91.2969V4.16406H102.789V6.33594H98.2812V16.375H95.8047V6.33594Z" fill="#FAFD5D"/>
<path d="M73.5 4.16406H83.8984V6.33594H75.9766V8.77344H82.9922V10.8125H75.9766V14.2109H84.0625V16.375H73.5V4.16406Z" fill="#FAFD5D"/>
<path d="M58.8594 4.16406H65.0703C66.0078 4.16406 66.8203 4.26302 67.5078 4.46094C68.1953 4.65365 68.7656 4.9349 69.2188 5.30469C69.6719 5.67448 70.0078 6.125 70.2266 6.65625C70.4505 7.1875 70.5625 7.78906 70.5625 8.46094C70.5625 8.91406 70.5078 9.34635 70.3984 9.75781C70.2891 10.1641 70.1198 10.5391 69.8906 10.8828C69.6667 11.2266 69.3828 11.5339 69.0391 11.8047C68.6953 12.0703 68.2917 12.2917 67.8281 12.4688L70.4844 16.375H67.4531L65.1562 12.9062H65.0859L61.3359 12.8984V16.375H58.8594V4.16406ZM65.1328 10.7578C65.6016 10.7578 66.0104 10.7031 66.3594 10.5938C66.7135 10.4844 67.0078 10.3307 67.2422 10.1328C67.4818 9.9349 67.6589 9.69531 67.7734 9.41406C67.8932 9.1276 67.9531 8.8099 67.9531 8.46094C67.9531 7.77865 67.7188 7.2526 67.25 6.88281C66.7812 6.50781 66.0755 6.32031 65.1328 6.32031H61.3359V10.7578H65.1328Z" fill="#FAFD5D"/>
<path d="M45.5469 4.16406H55.9453V6.33594H48.0234V8.77344H55.0391V10.8125H48.0234V14.2109H56.1094V16.375H45.5469V4.16406Z" fill="#FAFD5D"/>
<path d="M29.5234 4.16406H32V7.35156H39.5938V4.16406H42.0781V16.375H39.5938V9.46875H32V16.375H29.5234V4.16406Z" fill="#FAFD5D"/>
<path d="M8 4.16406H10.7031L14.0156 12.0469L14.7812 13.9531L15.3828 12.0469L16.6016 9.17188L14.4062 4.16406H16.9531L17.8516 6.54688L18.6875 4.16406H21.2344L19.0391 9.17188L20.2812 12.1094L21.0312 13.9531L21.6094 12.0781L24.9375 4.16406H27.6406L22.25 16.375H19.7969L18.7109 13.9531L17.8281 11.6016L16.9453 13.9531L15.8438 16.375H13.3906L8 4.16406Z" fill="#FAFD5D"/>
</svg>
